<svg data-v-423bf9ae="" xmlns="http://www.w3.org/2000/svg" viewBox="0 0 90.76984793492564 60" class="font"><!----><!----><!----><g data-v-423bf9ae="" id="6c3760d1-1d63-4989-a06e-bdefc55c2a2e" fill="#F0E9DA" transform="matrix(5.171856617030525,0,0,5.171856617030525,-2.5201042973074124,-16.853788507131867)"><path d="M3.19 11.59L3.19 11.59Q2.02 11.59 1.35 10.57Q0.67 9.54 0.52 7.64L0.52 7.64Q0.46 6.99 0.51 6.34Q0.55 5.70 0.64 5.17Q0.74 4.63 0.88 4.25Q1.01 3.87 1.15 3.73L1.15 3.73Q1.29 3.60 1.46 3.49Q1.64 3.38 1.81 3.32Q1.98 3.25 2.13 3.26Q2.28 3.27 2.38 3.35L2.38 3.35Q2.09 4.25 1.94 5.13Q1.79 6.02 1.77 6.81Q1.75 7.60 1.84 8.29Q1.93 8.97 2.12 9.46Q2.31 9.95 2.60 10.23Q2.88 10.51 3.25 10.51L3.25 10.51Q3.90 10.51 4.23 9.95Q4.57 9.39 4.70 8.52Q4.84 7.64 4.84 6.58Q4.84 5.51 4.83 4.48L4.83 4.48Q4.81 3.99 4.90 3.73Q4.99 3.46 5.29 3.35L5.29 3.35Q5.40 3.31 5.51 3.28L5.51 3.28Q5.73 3.23 5.87 3.31L5.87 3.31Q5.97 3.75 6.04 4.40Q6.10 5.04 6.13 5.67L6.13 5.67Q6.17 6.41 6.17 7.19L6.17 7.19Q6.19 7.46 6.23 7.94Q6.26 8.42 6.26 9.01Q6.26 9.60 6.22 10.26Q6.18 10.92 6.06 11.57Q5.93 12.22 5.71 12.82Q5.50 13.41 5.13 13.87Q4.76 14.33 4.24 14.59Q3.72 14.86 3.01 14.86L3.01 14.86Q2.43 14.86 2.00 14.55Q1.56 14.23 1.29 13.83Q1.03 13.43 0.94 13.06Q0.85 12.69 0.97 12.56L0.97 12.56L1.65 11.95Q1.79 12.62 2.04 12.97Q2.30 13.33 2.56 13.49L2.56 13.49Q2.86 13.69 3.19 13.71L3.19 13.71Q3.72 13.71 4.05 13.45Q4.39 13.18 4.59 12.70Q4.80 12.22 4.89 11.56Q4.99 10.90 5.03 10.12L5.03 10.12Q4.77 10.73 4.33 11.16Q3.88 11.59 3.19 11.59ZM11.10 10.21L11.10 10.21Q11.07 10.75 10.92 11.20Q10.76 11.65 10.49 11.98Q10.21 12.32 9.84 12.51Q9.46 12.70 9.01 12.71L9.01 12.71Q8.61 12.73 8.26 12.52Q7.92 12.32 7.66 11.95Q7.40 11.58 7.27 11.07Q7.14 10.55 7.19 9.95L7.19 9.95Q7.23 9.26 7.45 8.76Q7.67 8.26 7.92 7.93Q8.16 7.60 8.37 7.44Q8.59 7.29 8.64 7.26L8.64 7.26Q8.74 7.22 8.82 7.24Q8.90 7.26 9.00 7.29L9.00 7.29Q9.02 7.30 9.05 7.36L9.05 7.36Q9.11 7.45 9.12 7.71L9.12 7.71Q9.19 7.56 9.30 7.46Q9.41 7.37 9.52 7.33L9.52 7.33Q9.65 7.27 9.79 7.26L9.79 7.26Q9.88 7.25 10.12 7.41Q10.36 7.57 10.59 7.93Q10.81 8.29 10.98 8.85Q11.14 9.42 11.10 10.21ZM10.17 10.05L10.17 10.05Q10.19 9.72 10.15 9.39Q10.12 9.05 10.04 8.77Q9.97 8.49 9.86 8.32Q9.75 8.15 9.64 8.15L9.64 8.15Q9.52 8.18 9.37 8.27L9.37 8.27Q9.24 8.35 9.09 8.53Q8.94 8.71 8.80 9.04L8.80 9.04Q8.79 9.00 8.78 8.89L8.78 8.89Q8.76 8.79 8.76 8.63Q8.75 8.48 8.78 8.20L8.78 8.20Q8.59 8.44 8.48 8.75Q8.38 9.06 8.33 9.35L8.33 9.35Q8.27 9.69 8.24 10.04L8.24 10.04Q8.23 10.40 8.28 10.76Q8.33 11.12 8.44 11.39Q8.56 11.66 8.72 11.83Q8.89 11.99 9.12 11.98L9.12 11.98Q9.35 11.96 9.53 11.79Q9.71 11.61 9.84 11.33Q9.98 11.06 10.06 10.72Q10.14 10.38 10.17 10.05ZM13.62 3.71L13.62 3.71Q13.59 4.20 13.52 4.84Q13.45 5.48 13.38 6.22Q13.30 6.96 13.23 7.77Q13.15 8.57 13.10 9.39L13.10 9.39Q13.04 10.21 13.05 10.73Q13.06 11.24 13.11 11.57Q13.17 11.89 13.26 12.09Q13.36 12.28 13.51 12.46L13.51 12.46Q13.33 12.56 13.18 12.62Q13.03 12.67 12.92 12.70L12.92 12.70Q12.78 12.74 12.67 12.74L12.67 12.74Q12.47 12.74 12.32 12.54Q12.17 12.35 12.08 12.03Q11.99 11.72 11.94 11.33Q11.89 10.94 11.89 10.55L11.89 10.55Q11.89 10.14 11.92 9.60Q11.95 9.06 11.98 8.46Q12.02 7.85 12.06 7.18Q12.10 6.52 12.13 5.87L12.13 5.87Q12.15 5.36 12.18 4.95L12.18 4.95Q12.21 4.59 12.22 4.30Q12.24 4.01 12.21 3.95L12.21 3.95Q12.29 3.84 12.41 3.79Q12.54 3.73 12.65 3.69L12.65 3.69Q12.78 3.65 12.92 3.62L12.92 3.62L13.18 3.62Q13.29 3.62 13.41 3.64Q13.54 3.66 13.62 3.71ZM18.03 10.21L18.03 10.21Q18.01 10.75 17.85 11.20Q17.69 11.65 17.42 11.98Q17.14 12.32 16.77 12.51Q16.39 12.70 15.94 12.71L15.94 12.71Q15.54 12.73 15.20 12.52Q14.85 12.32 14.59 11.95Q14.33 11.58 14.20 11.07Q14.07 10.55 14.12 9.95L14.12 9.95Q14.16 9.26 14.38 8.76Q14.60 8.26 14.85 7.93Q15.09 7.60 15.31 7.44Q15.52 7.29 15.57 7.26L15.57 7.26Q15.67 7.22 15.75 7.24Q15.83 7.26 15.93 7.29L15.93 7.29Q15.96 7.30 15.98 7.36L15.98 7.36Q16.04 7.45 16.05 7.71L16.05 7.71Q16.12 7.56 16.23 7.46Q16.34 7.37 16.45 7.33L16.45 7.33Q16.58 7.27 16.72 7.26L16.72 7.26Q16.82 7.25 17.06 7.41Q17.29 7.57 17.52 7.93Q17.75 8.29 17.91 8.85Q18.07 9.42 18.03 10.21ZM17.10 10.05L17.10 10.05Q17.12 9.72 17.08 9.39Q17.05 9.05 16.97 8.77Q16.90 8.49 16.79 8.32Q16.68 8.15 16.57 8.15L16.57 8.15Q16.45 8.18 16.30 8.27L16.30 8.27Q16.17 8.35 16.02 8.53Q15.87 8.71 15.74 9.04L15.74 9.04Q15.72 9.00 15.71 8.89L15.71 8.89Q15.70 8.79 15.69 8.63Q15.68 8.48 15.71 8.20L15.71 8.20Q15.52 8.44 15.42 8.75Q15.31 9.06 15.26 9.35L15.26 9.35Q15.20 9.69 15.18 10.04L15.18 10.04Q15.16 10.40 15.21 10.76Q15.26 11.12 15.37 11.39Q15.49 11.66 15.65 11.83Q15.82 11.99 16.05 11.98L16.05 11.98Q16.28 11.96 16.46 11.79Q16.64 11.61 16.78 11.33Q16.91 11.06 16.99 10.72Q17.08 10.38 17.10 10.05Z"></path></g><!----><!----></svg>